<?xml version="1.0" standalone="no"?>
<!DOCTYPE svg PUBLIC "-//W3C//DTD SVG 20010904//EN"
 "http://www.w3.org/TR/2001/REC-SVG-20010904/DTD/svg10.dtd">
<svg version="1.0" xmlns="http://www.w3.org/2000/svg"
 width="700.000000pt" height="700.000000pt" viewBox="0 0 700.000000 700.000000"
 preserveAspectRatio="xMidYMid meet">
<metadata>
Created by potrace 1.11, written by Peter Selinger 2001-2013
</metadata>
<g transform="translate(0.000000,700.000000) scale(0.100000,-0.100000)"
fill="#000000" stroke="none">
<path d="M3363 6113 c-182 -28 -345 -113 -479 -248 -81 -81 -156 -193 -190
-281 l-16 -42 -894 0 c-492 0 -898 -3 -902 -7 -11 -11 -9 -575 3 -575 5 -1
133 -1 283 -1 149 0 272 -3 272 -6 0 -3 -12 -33 -26 -67 -33 -76 -26 -59 -184
-436 -73 -173 -140 -333 -150 -355 -10 -22 -77 -182 -150 -355 -73 -173 -138
-328 -146 -345 -65 -144 -204 -489 -209 -520 -4 -22 -9 -49 -12 -60 -5 -29 -4
-143 2 -197 26 -209 171 -375 415 -475 68 -28 175 -59 240 -69 14 -2 34 -6 45
-9 122 -26 496 -26 670 0 207 30 395 103 517 200 100 78 176 204 196 319 11
64 7 196 -8 267 -10 49 -132 357 -200 504 -5 11 -39 92 -76 180 -64 156 -76
183 -107 255 -8 19 -38 89 -65 155 -28 66 -83 197 -122 290 -40 94 -101 240
-137 325 -35 85 -69 164 -74 175 -35 80 -89 210 -89 216 0 4 204 7 453 7 l452
0 24 -53 c81 -187 245 -352 449 -454 l62 -31 0 -1625 0 -1625 -62 0 c-35 -1
-626 -1 -1314 -2 l-1251 -1 1 -291 0 -292 2913 -1 c2648 0 2913 2 2917 16 2 9
3 140 2 291 l-1 275 -1310 2 -1310 1 -3 1629 -2 1628 62 29 c192 90 341 235
433 421 l41 83 452 1 c249 0 452 -2 452 -4 0 -6 -39 -105 -55 -140 -47 -104
-428 -1014 -432 -1032 -3 -13 -9 -23 -14 -23 -5 0 -9 -5 -9 -11 0 -9 -157
-389 -245 -594 -117 -271 -124 -301 -121 -460 2 -83 8 -126 25 -175 92 -265
357 -423 786 -467 90 -10 379 -9 470 0 87 9 142 19 250 43 59 13 232 79 245
94 3 3 23 14 45 25 60 30 176 151 213 221 60 115 76 266 45 410 -9 38 -93 253
-191 484 -96 228 -191 456 -212 505 -20 50 -56 135 -80 190 -157 369 -390 924
-390 930 0 2 124 4 275 3 151 0 278 3 282 5 5 3 8 134 8 292 l0 288 -899 -1
-898 0 -33 72 c-168 359 -543 559 -932 499z m238 -591 c64 -23 120 -72 155
-135 26 -46 29 -62 29 -137 0 -98 -18 -143 -85 -209 -109 -108 -300 -105 -407
5 -69 71 -99 187 -74 279 44 163 222 255 382 197z m-1777 -2062 c113 -283 207
-521 209 -529 2 -12 -60 -14 -431 -15 -237 -1 -432 1 -432 4 0 3 98 249 217
548 146 366 219 537 224 525 4 -10 100 -250 213 -533z m3688 260 c58 -146 152
-380 208 -520 57 -140 105 -262 107 -270 4 -13 -49 -15 -429 -14 -362 1 -433
4 -430 15 3 16 37 104 62 164 9 22 95 235 190 473 95 238 176 430 180 425 4
-4 54 -127 112 -273z"/>
</g>
</svg>
